<?xml version="1.0" standalone="no"?>
<!DOCTYPE svg PUBLIC "-//W3C//DTD SVG 20010904//EN"
 "http://www.w3.org/TR/2001/REC-SVG-20010904/DTD/svg10.dtd">
<svg version="1.0" xmlns="http://www.w3.org/2000/svg"
 width="1000.000000pt" height="1000.000000pt" viewBox="0 0 1000.000000 1000.000000"
 preserveAspectRatio="xMidYMid meet">

<g transform="translate(0.000000,1000.000000) scale(0.100000,-0.100000)"
fill="#000000" stroke="none">
<path d="M5928 7205 c-232 -39 -445 -152 -610 -323 -179 -185 -258 -348 -313
-644 -33 -179 -62 -266 -140 -423 -358 -721 -1247 -1022 -1968 -664 -131 65
-117 209 -117 -1176 l0 -1195 1110 0 1109 0 3 887 3 888 23 65 c31 84 100 189
160 240 26 22 77 56 113 75 115 60 153 65 544 65 265 0 373 4 444 15 601 98
1014 669 916 1270 -97 603 -678 1021 -1277 920z"/>
</g>
</svg>
