<?xml version="1.0"?>
<svg width="32" height="32" xmlns="http://www.w3.org/2000/svg" xmlns:svg="http://www.w3.org/2000/svg" version="1.1">
 <title>untitled101</title>
 <g class="layer">
  <title>Layer 1</title>
  <path d="m15.95,0.42q3.28,0 6.14,1.23t5.02,3.36t3.39,4.96t1.24,6.1t-1.24,6.11t-3.39,4.97t-5.02,3.37t-6.14,1.25t-6.14,-1.25t-5.01,-3.37t-3.37,-4.97t-1.24,-6.11t1.24,-6.1t3.37,-4.96t5.01,-3.36t6.14,-1.23zm-4.9,11.76l-3.96,0l0,12.74l3.96,0l0,-12.74zm-2,-1.01q0.83,0 1.41,-0.56t0.59,-1.39t-0.59,-1.38t-1.41,-0.56t-1.39,0.56t-0.57,1.38t0.57,1.39t1.39,0.56zm15.81,6.37q0,-1.34 -0.76,-2.64t-1.95,-1.97q-1.1,-0.6 -2.55,-0.64t-2.67,0.48l0,-0.6l-3.92,0l0,12.74l3.92,0l0,-7.79l1.66,-0.79q0.3,-0.14 0.81,-0.14t0.81,0.18q0.23,0.12 0.46,0.49t0.22,0.67l0,7.38l3.97,0l0,-7.38z" id="svg_1"/>
 </g>
</svg>